HIERARCHY
ROOT Hips
{
	OFFSET 0.000000 0.000000 0.000000
	CHANNELS 6 Xposition Yposition Zposition Yrotation Xrotation Zrotation
	JOINT Chest
	{
		OFFSET 0.000000 -0.009281 11.569106
		CHANNELS 3 Yrotation Xrotation Zrotation
		JOINT Chest2
		{
			OFFSET -0.000000 0.016865 9.269641
			CHANNELS 3 Yrotation Xrotation Zrotation
			JOINT Chest3
			{
				OFFSET -0.000000 0.000001 8.374491
				CHANNELS 3 Yrotation Xrotation Zrotation
				JOINT Chest4
				{
					OFFSET -0.000000 0.000001 8.374493
					CHANNELS 3 Yrotation Xrotation Zrotation
					JOINT Neck
					{
						OFFSET -0.000000 0.000002 12.152554
						CHANNELS 3 Yrotation Xrotation Zrotation
						JOINT Head
						{
							OFFSET -0.000000 0.040101 7.802319
							CHANNELS 3 Yrotation Xrotation Zrotation
							End Site
							{
								OFFSET -0.000000 0.020947 14.853096
							}
						}
					}
					JOINT RightCollar
					{
						OFFSET 2.894404 0.000001 6.791374
						CHANNELS 3 Yrotation Xrotation Zrotation
						JOINT RightShoulder
						{
							OFFSET 13.574684 0.000001 0.000000
							CHANNELS 3 Yrotation Xrotation Zrotation
							JOINT RightElbow
							{
								OFFSET 23.923903 0.000002 0.000000
								CHANNELS 3 Yrotation Xrotation Zrotation
								JOINT RightWrist
								{
									OFFSET 19.846718 0.012767 0.000000
									CHANNELS 3 Yrotation Xrotation Zrotation
									End Site
									{
										OFFSET 14.973145 0.000001 0.000000
									}
								}
							}
						}
					}
					JOINT LeftCollar
					{
						OFFSET -2.894404 0.000001 6.791374
						CHANNELS 3 Yrotation Xrotation Zrotation
						JOINT LeftShoulder
						{
							OFFSET -13.574684 -0.000001 0.000000
							CHANNELS 3 Yrotation Xrotation Zrotation
							JOINT LeftElbow
							{
								OFFSET -23.923903 -0.000002 0.000000
								CHANNELS 3 Yrotation Xrotation Zrotation
								JOINT LeftWrist
								{
									OFFSET -19.846718 0.012763 0.000000
									CHANNELS 3 Yrotation Xrotation Zrotation
									End Site
									{
										OFFSET -14.973145 -0.000001 0.000000
									}
								}
							}
						}
					}
				}
			}
		}
	}
	JOINT RightHip
	{
		OFFSET 9.469263 0.004643 0.045487
		CHANNELS 3 Yrotation Xrotation Zrotation
		JOINT RightKnee
		{
			OFFSET 0.000000 0.002661 -40.478676
			CHANNELS 3 Yrotation Xrotation Zrotation
			JOINT RightAnkle
			{
				OFFSET 0.000000 0.049106 -35.224068
				CHANNELS 3 Yrotation Xrotation Zrotation
				JOINT RightToe
				{
					OFFSET -0.000001 12.539529 -6.151390
					CHANNELS 3 Yrotation Xrotation Zrotation
					End Site
					{
						OFFSET -0.000001 5.044994 -1.291870
					}
				}
			}
		}
	}
	JOINT LeftHip
	{
		OFFSET -9.469263 0.004641 0.045487
		CHANNELS 3 Yrotation Xrotation Zrotation
		JOINT LeftKnee
		{
			OFFSET 0.000000 0.002661 -40.478676
			CHANNELS 3 Yrotation Xrotation Zrotation
			JOINT LeftAnkle
			{
				OFFSET 0.000000 0.049106 -35.224068
				CHANNELS 3 Yrotation Xrotation Zrotation
				JOINT LeftToe
				{
					OFFSET -0.000001 12.539529 -6.151390
					CHANNELS 3 Yrotation Xrotation Zrotation
					End Site
					{
						OFFSET -0.000001 5.044994 -1.291870
					}
				}
			}
		}
	}
}
MOTION
Frames: 15
Frame Time: 0.016667
-16.003283 -1.278449 75.596359 -4.563240 8.037183 -135.030764 -9.641094 -5.234400 8.239624 -3.668177 -2.507305 4.943747 -3.668177 -2.507305 4.943746 -2.730613 -1.910376 3.692319 -1.466457 -12.540311 1.048454 -2.354077 12.900159 1.382398 8.965967 -1.448369 1.771354 62.990054 -7.321679 54.179601 6.690338 -29.934738 42.678802 -41.699729 27.281661 31.118478 -9.153975 8.688224 2.044943 -47.697885 45.144040 13.140370 -2.632496 16.440740 -6.528059 22.268066 25.368072 -27.327404 -4.116186 9.793786 -21.814473 38.862065 -50.998369 -37.236959 19.365680 -10.610471 29.085801 -2.049022 -1.097473 0.821478 -19.585789 27.159597 -7.290416 -12.487467 -31.687116 33.698548 14.612249 11.026615 8.282804 -0.413924 0.075817 -0.507040 
-16.083307 -1.298953 75.694870 -4.051558 8.077896 -135.875385 -9.305959 -4.756531 9.406621 -3.600984 -2.456869 4.958687 -3.600984 -2.456869 4.958681 -2.680589 -1.872086 3.704114 -1.427606 -12.540202 0.949337 -2.321630 12.899456 1.209873 8.976014 -1.455745 1.759861 63.194741 -7.600427 53.487427 6.431498 -30.036109 40.597114 -40.769676 26.618799 31.006293 -9.183894 8.577533 1.908607 -47.552173 45.735411 12.813792 -3.590463 17.595660 -7.775628 22.602559 26.342397 -26.914494 -4.368823 10.197431 -21.498577 39.164353 -51.742129 -37.007539 21.697894 -13.924459 29.804856 -2.634783 -0.706184 0.071078 -18.762063 27.604618 -6.132172 -12.317989 -31.557940 33.682043 14.540095 11.374399 7.682347 -0.372876 -0.121076 -0.318520 
-16.164988 -1.352350 75.840675 -3.521854 7.792214 -136.741016 -8.720761 -4.505102 10.626536 -3.523478 -2.410217 4.987951 -3.523478 -2.410216 4.987954 -2.622744 -1.836632 3.726658 -1.391176 -12.547382 0.838270 -2.298781 12.885036 1.013640 8.947742 -1.509470 1.767435 63.545812 -7.692370 52.800511 6.284084 -30.200190 38.344214 -39.950880 26.165365 31.055286 -9.223690 8.571531 1.843745 -47.441244 46.212268 12.449954 -4.697521 18.645535 -9.140061 23.047567 27.274892 -26.523479 -4.504431 10.560156 -21.161319 39.556392 -52.768658 -36.782157 24.361552 -16.936417 30.605784 -3.010861 -0.514093 -0.965197 -17.646069 27.809696 -4.920449 -12.160557 -31.406699 33.640160 14.464208 11.686746 7.222217 -0.327097 -0.314103 -0.170532 
-16.149700 -1.470423 76.032257 -3.219034 7.390593 -137.253089 -8.182644 -4.547729 11.483422 -3.439116 -2.370068 5.025774 -3.439116 -2.370069 5.025779 -2.559674 -1.806043 3.755593 -1.352533 -12.560253 0.726428 -2.271979 12.860007 0.816947 8.901098 -1.546006 1.765765 63.880089 -7.823604 52.136818 6.141987 -30.198285 35.952914 -39.372161 25.870822 31.275201 -9.255716 8.521413 1.786999 -47.378065 46.690299 12.067635 -6.025630 19.563590 -10.711942 23.699722 28.169631 -26.057609 -4.836447 10.791289 -21.073249 40.307374 -53.853699 -36.795978 26.921203 -19.135992 31.132337 -3.047330 -0.642688 -1.786340 -16.773042 27.588941 -4.053391 -12.043687 -31.203279 33.520803 14.446166 11.840535 6.899817 -0.304334 -0.356844 -0.055935 
-16.036463 -1.640280 76.236710 -3.022898 7.071309 -137.351074 -7.747679 -4.656742 11.890529 -3.349663 -2.331952 5.059824 -3.349661 -2.331952 5.059821 -2.492785 -1.776901 3.781689 -1.311217 -12.584589 0.630477 -2.233309 12.813861 0.651823 8.872921 -1.527655 1.761949 64.108681 -8.108824 51.481099 5.875153 -29.997812 33.569693 -39.001992 25.569220 31.268333 -9.290140 8.433708 1.695465 -47.267040 47.186205 11.781415 -7.605700 20.395153 -12.528498 24.437244 29.052254 -25.631663 -5.444088 11.016581 -21.195651 41.743726 -54.970271 -37.548313 28.949053 -19.987364 31.415383 -2.627304 -1.023102 -2.149884 -16.271087 27.173336 -3.624437 -11.913716 -30.972811 33.281599 14.473828 11.970720 6.667497 -0.290039 -0.379649 0.041723 
-15.843778 -1.873535 76.435135 -2.855567 6.773005 -137.366388 -7.338222 -4.768482 12.181277 -3.255171 -2.289174 5.081799 -3.255171 -2.289174 5.081806 -2.422207 -1.744145 3.798774 -1.270928 -12.626877 0.560074 -2.185709 12.734701 0.535192 8.887592 -1.455902 1.771152 64.261480 -8.515284 50.791284 5.553350 -29.574600 31.210112 -38.489151 25.110600 31.026059 -9.353055 8.420628 1.626038 -47.037785 47.580757 11.674679 -9.374101 21.152818 -14.591214 25.115097 30.000346 -25.288898 -6.183855 11.296176 -21.184576 43.757358 -56.177398 -39.054602 30.272051 -19.690218 31.565634 -1.923723 -1.227313 -2.153592 -15.867650 26.704458 -3.273058 -11.792618 -30.789455 32.891961 14.545596 12.116158 6.662654 -0.290663 -0.388954 0.072403 
-15.592359 -2.147505 76.623299 -2.633205 6.507733 -137.336048 -6.908765 -4.807751 12.393127 -3.154915 -2.244418 5.090509 -3.154915 -2.244416 5.090506 -2.347373 -1.709780 3.805919 -1.228278 -12.686535 0.514254 -2.123160 12.623650 0.466594 8.902232 -1.437230 1.783126 64.463127 -8.840367 50.130201 5.350827 -29.025138 28.872142 -37.659969 24.562089 30.712584 -9.412914 8.374875 1.604904 -46.820650 47.907394 11.584895 -11.256118 21.799452 -16.845453 25.716350 31.035669 -24.962820 -6.947988 11.780808 -21.105225 46.117359 -57.455743 -41.187496 30.577265 -18.518412 31.052926 -0.890949 -0.900019 -1.530448 -15.500839 26.261785 -3.050159 -11.698488 -30.610866 32.457049 14.648182 12.249433 6.854335 -0.304862 -0.382258 0.025165 
-15.302354 -2.435078 76.804787 -2.390405 6.309794 -137.206725 -6.508081 -4.786336 12.460115 -3.050224 -2.199589 5.093270 -3.050224 -2.199591 5.093267 -2.269234 -1.675297 3.808613 -1.176408 -12.751327 0.485117 -2.036067 12.503362 0.433623 8.915381 -1.421042 1.791333 64.824164 -8.939055 49.473372 5.300973 -28.565851 26.538569 -36.735162 24.064005 30.517408 -9.449183 8.231351 1.604790 -46.685811 48.254603 11.443903 -13.168898 22.208698 -19.253197 26.369185 32.146371 -24.516071 -7.787024 12.467492 -21.223097 48.144805 -58.938297 -43.304082 30.026239 -16.888032 30.557419 0.245316 -0.356071 -0.644453 -15.233728 25.829639 -2.988758 -11.599209 -30.392993 32.023076 14.741809 12.337496 7.090442 -0.314212 -0.349517 -0.038744 
-14.971383 -2.715044 76.982544 -2.257916 6.221647 -136.916825 -6.261155 -4.780480 12.315608 -2.947316 -2.156401 5.097007 -2.947314 -2.156402 5.097009 -2.192415 -1.642060 3.812004 -1.112498 -12.816562 0.464024 -1.922781 12.382437 0.420873 8.937089 -1.394512 1.782529 65.310843 -8.858966 48.798556 5.270902 -28.284136 24.328845 -36.076171 23.678567 30.502194 -9.474366 8.117775 1.617620 -46.505300 48.583559 11.349511 -15.081374 22.311680 -21.740555 27.169724 33.178153 -23.934265 -8.725092 13.209899 -21.613736 49.152490 -60.778131 -44.628627 29.285816 -14.847248 30.039766 1.366870 0.108203 0.346433 -15.207071 25.331169 -3.120943 -11.491784 -30.103997 31.712466 14.766924 12.339284 7.164499 -0.282746 -0.231276 -0.040341 
-14.638329 -2.993219 77.153870 -2.162341 6.181170 -136.543746 -6.076182 -4.773385 12.054666 -2.847953 -2.113728 5.104188 -2.847953 -2.113727 5.104187 -2.118238 -1.609254 3.817954 -1.043185 -12.887192 0.443064 -1.799206 12.251528 0.410573 8.975754 -1.387905 1.741627 65.764784 -8.697049 48.130625 5.102138 -28.157320 22.368280 -35.762679 23.428925 30.537595 -9.514836 8.028342 1.554438 -46.194420 48.979833 11.335971 -16.924251 22.111293 -24.214452 28.045291 34.042745 -23.288739 -9.496761 14.021337 -21.796862 49.236061 -62.766891 -45.135540 28.394855 -12.348094 29.277568 2.589103 0.506504 1.437992 -15.262614 24.822183 -3.334664 -11.380582 -29.807946 31.617909 14.699090 12.364634 6.941617 -0.226221 -0.090100 -0.006525 
-14.329497 -3.271454 77.318459 -2.008666 6.152155 -136.274213 -5.864477 -4.710353 11.875902 -2.749554 -2.072384 5.104293 -2.749553 -2.072387 5.104296 -2.044795 -1.577419 3.818572 -0.987010 -12.965944 0.428899 -1.697820 12.105483 0.407724 9.017802 -1.402009 1.708207 66.076329 -8.518837 47.484769 4.786253 -28.044682 20.671557 -35.591484 23.285491 30.522954 -9.543670 7.928349 1.489641 -45.873514 49.433627 11.269295 -18.672860 21.690560 -26.544950 28.838794 34.792526 -22.771542 -9.964261 15.049541 -21.235635 49.094368 -64.587300 -45.246144 27.055122 -9.441371 27.766283 4.068321 1.043693 2.676348 -15.235816 24.383027 -3.419056 -11.249166 -29.489827 31.426295 14.654589 12.385487 6.853497 -0.184919 0.012866 -0.029143 
-14.040760 -3.538933 77.478729 -1.817178 6.174723 -136.081397 -5.662781 -4.572019 11.784094 -2.656595 -2.032537 5.086818 -2.656596 -2.032538 5.086815 -1.975477 -1.546673 3.805960 -0.939362 -13.060414 0.419306 -1.610735 11.930243 0.410091 9.077310 -1.425568 1.655471 66.280777 -8.380945 46.865524 4.472661 -27.785534 19.127878 -35.485725 23.179538 30.465652 -9.534441 7.818013 1.490328 -45.616689 49.824830 11.081807 -20.339643 21.143701 -28.744025 29.546558 35.526635 -22.421221 -10.260343 16.362855 -19.821996 49.420220 -65.951344 -45.670244 24.898222 -6.434808 25.231057 5.927430 1.800180 4.089332 -15.175728 24.016519 -3.354366 -11.090872 -29.159024 31.039026 14.613125 12.383521 6.896684 -0.129301 0.097681 -0.051547 
-13.773884 -3.804585 77.636826 -1.608151 6.209158 -135.859224 -5.451566 -4.408958 11.695727 -2.566482 -2.000176 5.040158 -2.566482 -2.000175 5.040160 -1.908318 -1.521450 3.771410 -0.904515 -13.169879 0.418212 -1.544472 11.727139 0.423354 9.138218 -1.448546 1.599464 66.494357 -8.169765 46.262248 4.311280 -27.392668 17.649620 -35.391424 23.075094 30.421669 -9.545860 7.719414 1.454383 -45.292774 50.208106 10.919391 -21.942517 20.434253 -30.888171 30.308329 36.192838 -22.057309 -10.452810 17.844836 -17.764231 50.126359 -66.687406 -46.610218 21.865857 -3.786767 21.962975 8.096543 2.593757 5.495385 -15.096178 23.660141 -3.239549 -10.913488 -28.808618 30.717512 14.514464 12.416592 6.770116 -0.057991 0.160103 -0.048741 
-13.524358 -4.042587 77.797798 -1.422738 6.298702 -135.449864 -5.297761 -4.256504 11.494213 -2.478856 -1.973495 4.965151 -2.478856 -1.973496 4.965145 -1.843064 -1.500405 3.715555 -0.873580 -13.289941 0.408362 -1.489239 11.504238 0.418409 9.212531 -1.451862 1.541414 66.716113 -7.799926 45.640933 4.263165 -26.982775 16.257180 -35.276192 22.991641 30.388113 -9.588682 7.589319 1.278149 -44.883205 50.680355 10.783792 -23.400822 19.486226 -32.918626 31.164019 36.796104 -21.621047 -10.717449 19.399715 -15.481920 50.514092 -66.959213 -47.738176 18.337774 -1.860126 18.615356 10.355563 3.182034 6.697250 -15.141189 23.256355 -3.273244 -10.720817 -28.311756 30.402511 14.488648 12.343358 6.546645 -0.020740 0.229587 -0.043985 
-13.251618 -4.257757 77.961662 -1.368532 6.365278 -134.885636 -5.236475 -4.209650 11.230240 -2.387367 -1.940693 4.878555 -2.387367 -1.940692 4.878554 -1.774991 -1.474712 3.651047 -0.837349 -13.451905 0.373595 -1.433934 11.203343 0.368697 9.333153 -1.443475 1.473752 66.943736 -7.280009 44.942768 4.154001 -26.676163 14.971655 -35.139496 22.969648 30.387450 -9.590686 7.231926 1.002558 -44.672159 51.308477 10.416212 -24.661868 18.261682 -34.830676 32.086566 37.148931 -21.185855 -11.065694 20.856688 -13.136639 50.163331 -67.148047 -48.829142 14.828795 -0.538961 15.639878 12.522692 3.369604 7.654335 -15.353721 22.693203 -3.397875 -10.443393 -27.760218 29.865501 14.513121 12.145045 6.408922 0.000908 0.330526 -0.019619 
